# xmcd CD database file
#
# Track frame offsets:
#	150
#	13268
#	25620
#	38399
#	50149
#	62466
#	72998
#	86531
#	97290
#	108300
#	123438
#	135625
#	148539
#	161076
#	176223
#	190908
#	204533
#	218617
#	232118
#	243730
#	254000
#	269611
#	285070
#	299634
#	310763
#	324491
#	335726
#
# Disc length: 4678 seconds
#
# Revision: 0
# Processed by: cddbd v1.5.2PL0 Copyright (c) Steve Scherf et al.
# Submitted via: CDex 1.51
#
DISCID=a312441b
DTITLE=Django Reinhardt - Reknown and Resistance 1937-1943 Disc D
DYEAR=2011
DGENRE=Jazz
TTITLE0=Deux Pieds Gauches
TTITLE1=Joyeuse Fumee
TTITLE2=Tiger Rag
TTITLE3=Quatre Tickets
TTITLE4=Serenade D'Hiver
TTITLE5=Le Sheik
TTITLE6=Noel Blues
TTITLE7=Margie
TTITLE8=Bijou
TTITLE9=Indecision
TTITLE10=Oui, C'est Ca
TTITLE11=Cascades
TTITLE12=Reflets
TTITLE13=Onze Heures Vingt
TTITLE14=On The Alamo
TTITLE15=Pour Commencer
TTITLE16=Pour Terminer
TTITLE17=Les Yeux Noirs
TTITLE18=Begin The beguine
TTITLE19=Swinging The Blues
TTITLE20=Petite Lili
TTITLE21=Ninouche
TTITLE22=Stockholm
TTITLE23=La Cigale Et La Fourmi
TTITLE24=Out Of Nowhere
TTITLE25=Hungaria
TTITLE26=Premiere Idee D'Eddie
EXTD=YEAR: 2011
EXTT0=
EXTT1=
EXTT2=
EXTT3=
EXTT4=
EXTT5=
EXTT6=
EXTT7=
EXTT8=
EXTT9=
EXTT10=
EXTT11=
EXTT12=
EXTT13=
EXTT14=
EXTT15=
EXTT16=
EXTT17=
EXTT18=
EXTT19=
EXTT20=
EXTT21=
EXTT22=
EXTT23=
EXTT24=
EXTT25=
EXTT26=
PLAYORDER=
